<svg version="1.2" xmlns="http://www.w3.org/2000/svg" viewBox="0 0 1000 1000" width="1000" height="1000">
	<title>6615563-ai</title>
	<defs>
		<clipPath clipPathUnits="userSpaceOnUse" id="cp1">
			<path d="m441.35 735.36c-180.01 0-325.51-145.5-325.51-325.51 0-180 145.5-325.51 325.51-325.51 180.01 0 325.51 145.51 325.51 325.51 0 180.01-145.5 325.51-325.51 325.51z"/>
		</clipPath>
	</defs>
	<style>
		.s0 { fill: #3879b6 } 
		.s1 { fill: #869cad;stroke: #000000;stroke-linecap: round;stroke-linejoin: round;stroke-width: 2.2 } 
		.s2 { fill: #bdcddb;stroke: #000000;stroke-linecap: round;stroke-linejoin: round;stroke-width: 2.2 } 
		.s3 { fill: #4cbfa9;stroke: #000000;stroke-linecap: round;stroke-linejoin: round;stroke-width: 2.2 } 
		.s4 { fill: #facb61;stroke: #000000;stroke-linecap: round;stroke-linejoin: round;stroke-width: 2.2 } 
		.s5 { fill: #e5e5e5;stroke: #000000;stroke-linecap: round;stroke-linejoin: round;stroke-width: 2.2 } 
		.s6 { fill: #f7adad;stroke: #000000;stroke-linecap: round;stroke-linejoin: round;stroke-width: 2.2 } 
		.s7 { fill: #3979b7;stroke: #000000;stroke-linecap: round;stroke-linejoin: round;stroke-width: 2.2 } 
		.s8 { fill: #ffffff;stroke: #000000;stroke-linecap: round;stroke-linejoin: round;stroke-width: 2.2 } 
		.s9 { fill: #e5ad3e;stroke: #000000;stroke-linecap: round;stroke-linejoin: round;stroke-width: 2.2 } 
		.s10 { fill: #68d8c4;stroke: #000000;stroke-linecap: round;stroke-linejoin: round;stroke-width: 2.2 } 
		.s11 { fill: #5f4e6d;stroke: #000000;stroke-linecap: round;stroke-linejoin: round;stroke-width: 2.2 } 
		.s12 { fill: #2c65a8;stroke: #000000;stroke-linecap: round;stroke-linejoin: round;stroke-width: 2.2 } 
	</style>
	<g id="OBJECTS">
		<g id="&lt;Group&gt;">
			<path id="SkillSwift" class="s0" aria-label="SkillSwift"  d="m212.9 889.6c0-40.8-60.3-31.3-60.3-52.5 0-7.6 5.4-11.3 12.5-11.1 8 0.1 13.6 4.8 14.1 12.7h32.2c-1.3-23.3-19.2-36.6-45.8-36.6-25.6 0-44.5 12.9-44.5 36.1-0.4 43.3 60.7 31.1 60.7 53.7 0 7.1-5.6 11.5-14.3 11.5-8.3 0-14.2-4.5-15.1-13.9h-31.7c0.9 24.7 21.4 37.7 47.7 37.7 28.5 0 44.5-17 44.5-37.6zm13.9 36.4h29.8v-40.7l29.6 40.7h36.8l-40.7-48.4 40.4-48.7h-36.7l-29.4 39.5v-71.1h-29.8zm103.2 0h29.8v-97.1h-29.8zm15-107.2c10.4 0 17.5-7.1 17.5-16 0-9-7.1-16.1-17.5-16.1-10.6 0-17.8 7.1-17.8 16.1 0 8.9 7.2 16 17.8 16zm32 107.2h29.7v-128.7h-29.7zm46.9 0h29.8v-128.8h-29.8zm135.7-36.3c0-40.9-60.3-31.3-60.3-52.5 0-7.7 5.4-11.4 12.5-11.2 8 0.2 13.6 4.9 14.1 12.7h32.2c-1.3-23.3-19.2-36.5-45.8-36.5-25.6 0-44.5 12.9-44.5 36-0.4 43.3 60.7 31.1 60.7 53.7 0 7.2-5.6 11.5-14.3 11.5-8.3 0-14.2-4.5-15.1-13.9h-31.7c0.9 24.7 21.4 37.8 47.7 37.8 28.5 0 44.5-17.1 44.5-37.6zm30.3 36.3h32.7l15.8-62.9 15.3 62.9h32.9l26.3-97h-28l-13.6 69-16.5-69h-31.5l-16.4 69.4-13.7-69.4h-29.7zm129.9 0h29.8v-97.1h-29.8zm15-107.2c10.4 0 17.5-7.1 17.5-16 0-9-7.1-16.1-17.5-16.1-10.6 0-17.8 7.1-17.8 16.1 0 8.9 7.2 16 17.8 16zm34.9 107.2h29.8v-72.4h16v-24.7h-16v-0.8c0-10.3 4-13.8 15.5-13.1v-25.2c-29.6-1.6-45.3 11-45.3 36.4v2.7h-10.8v24.7h10.8zm60-33.7c0 25.2 14.1 33.7 34.3 33.7h15.2v-25.2h-10.7c-6.6 0-9-2.4-9-8.2v-38.9h19.5v-24.7h-19.5v-23.7h-29.8v23.7h-11.8v24.7h11.8z"/>
		</g>
		<g id="&lt;Group&gt;">
			<path id="&lt;Path&gt;" class="s1" d="m441.3 735.4c-180 0-325.5-145.5-325.5-325.5 0-180.1 145.5-325.6 325.5-325.6 180.1 0 325.6 145.5 325.6 325.6 0 180-145.5 325.5-325.6 325.5z"/>
			<path id="&lt;Path&gt;" class="s2" d="m539.4 405.4l149.1 74.5c0 0 5 126.2-43.4 165.8l-109.3-43.1c0 0-83.2-111.6 3.6-197.2z"/>
			<g id="&lt;Clip Group&gt;" clip-path="url(#cp1)">
				<path id="&lt;Path&gt;" class="s2" d="m253.7 434.4c0 0 125.7-90.2 259.7-33 17.7 7.5 52.4 29.1 52.4 29.1l19.3 322c0 0-233.4 58.4-294.8 21.8 0 0 27.8-267.9-36.6-339.9z"/>
				<path id="&lt;Path&gt;" class="s3" d="m307.1 517.3l-19.7 293.8 293.9 2.4 2-296.2c0 0-87.2 62.8-276.2 0z"/>
				<path id="&lt;Path&gt;" class="s4" d="m460.9 645.7c0 0 125.6 38 158.4 91.1l-125.7 41.6-54.9-54.8z"/>
			</g>
			<path id="&lt;Path&gt;" class="s2" d="m318.3 651.9c0 0-149.9 13.2-167.6 50.9 0 0-12.6-72.2 12.8-129.7 17.7-40.2 39.8-146.1 84.9-154 0 0 45.4-19.5 55.8 63.7z"/>
			<path id="&lt;Path&gt;" class="s5" d="m675.5 473.4c0 0-39 10.7-56.3 65.9-8.7 28-34.8 113.7 45.2 106.4l24.1-165.8z"/>
			<path id="&lt;Path&gt;" class="s6" d="m648.7 640.5c4.2 2.9 9.4 4.7 15.7 5.2 22.6 1.7 55.1 5.8 68.2 6 21 0.3 57.5-2.1 57.5-61.2 0-17.4 2.7-199 2.7-199l-83.4-12.5c0 0-31.9 87.3-40.4 113.6-9.9 30.5-31.8 112.9-31.8 112.9-2.5 15 1.4 28.1 11.5 35z"/>
			<path id="&lt;Path&gt;" class="s4" d="m786.6 414.9c0 0 33.2-42.5 47.4-54.6 15-12.8 36.9-24.6 72.4-34.4 6.5-1.8 16.4-24.2-7.1-26.2 0 0-25-1.5-38.5 3.1 0 0 43.6-9.9 64.7-15.9 7.1-2 13.9-29.8-11.2-25.3-13.6 2.5-53 16.2-53 16.2l44.7-17.8c10.5-4.2 14.2-18 6.2-26q-0.6-0.6-1.2-1.1c-3.7-2.9-8.8-3-12.9-1l-48.3 24.3 32-33.6c0 0 7-32.4-48.9 0l-93.4 53.7c0 0-22.2 7.9-21.9 57.4 0.1 15-11.4 58.9-11.4 58.9z"/>
			<g id="&lt;Group&gt;">
				<path id="&lt;Path&gt;" class="s7" d="m540.4 630.9h26.4c9.5 0 17.3-7.5 17.6-17 1.9-50.1 3.2-196.4-41.5-234.9 0 0-24.3-11.9-44.2 4.3-5.6 4.6-7.1 12.6-3.9 19.1 11.9 24.2 40 95.3 28.1 208.9-1.1 10.5 7 19.6 17.5 19.6z"/>
				<path id="&lt;Path&gt;" class="s8" d="m557.3 605.5c-7.3 0-13.2-5.9-13.2-13.2 0-7.4 5.9-13.3 13.2-13.3 7.4 0 13.3 5.9 13.3 13.3 0 7.3-5.9 13.2-13.3 13.2z"/>
			</g>
			<g id="&lt;Group&gt;">
				<path id="&lt;Path&gt;" class="s7" d="m326.9 639l26.3-1.4c9.5-0.5 16.9-8.4 16.7-17.9-0.9-50.2-7.5-196.3-54.3-232.3 0 0-24.8-10.6-43.8 6.6-5.4 4.9-6.5 13-2.9 19.3 13.2 23.6 45.2 93 39.4 207.1-0.5 10.5 8.1 19.2 18.6 18.6z"/>
				<path id="&lt;Path&gt;" class="s8" d="m341.7 612.8c-7.4 0-13.3-5.9-13.3-13.3 0-7.3 5.9-13.2 13.3-13.2 7.3 0 13.3 5.9 13.3 13.2 0 7.4-6 13.3-13.3 13.3z"/>
			</g>
			<g id="&lt;Group&gt;">
				<path id="&lt;Path&gt;" class="s9" d="m755.6 86.1v76.3h-39.2v-76.3z"/>
				<path id="&lt;Path&gt;" class="s2" d="m681.1 191.2h251.8c2.4 0 3.7-2.8 2.2-4.6l-114.8-133.1c-1.6-1.9-4.6-2-6.4-0.2l-134.7 133.1c-1.8 1.8-0.6 4.8 1.9 4.8z"/>
				<path id="&lt;Path&gt;" class="s10" d="m889.9 181.4l-77.2-87.2-84.1 87.2v121.4h161.3z"/>
				<path id="&lt;Path&gt;" class="s2" d="m831.5 222.2v80.6h-37.6v-80.6z"/>
				<path id="&lt;Path&gt;" class="s8" d="m812.7 162.9c-7.3 0-13.3-5.9-13.3-13.2 0-7.4 6-13.3 13.3-13.3 7.4 0 13.3 5.9 13.3 13.3 0 7.3-5.9 13.2-13.3 13.2z"/>
			</g>
			<g id="&lt;Group&gt;">
				<path id="&lt;Path&gt;" class="s6" d="m344.1 322.8l16.3 116.2c0 0 77.8 41.3 138.9-10.5l-28.8-109.4z"/>
				<g id="&lt;Group&gt;">
					<g id="&lt;Group&gt;">
						<g id="&lt;Group&gt;">
							<path id="&lt;Path&gt;" class="s6" d="m511.2 266.6l-14 4.6-31.2-95.9 14-4.5c17.5-5.7 36.3 3.9 42 21.4l10.6 32.5c5.7 17.5-3.9 36.3-21.4 41.9z"/>
						</g>
						<g id="&lt;Group&gt;">
							<path id="&lt;Path&gt;" class="s6" d="m488.2 361.3l-89.4 22c-20.8 6.8-43.2-4.6-50-25.4l-63.6-187.6c-8-24.7 5.5-51.3 30.2-59.3l103.1-37.5c24.7-8.1 51.2 5.5 59.3 30.2l48.8 182.2c10.2 31.4-7 65.2-38.4 75.4z"/>
						</g>
						<g id="&lt;Group&gt;">
							<path id="&lt;Path&gt;" class="s11" d="m345.1 284.2c3.2-3.1 4.5-7.7 3.3-12l-19.8-72.6-26.2 8.9 22.9 70.6c2.8 8.4 13.3 11.1 19.8 5.1z"/>
						</g>
					</g>
					<path id="&lt;Path&gt;" class="s7" d="m285.2 237.8c0 0 58.5-68.5 206.3-133.8 0 0-48.1-74.7-148.1-26.1-38.3 18.6-93 55-58.2 159.9z"/>
					<g id="&lt;Group&gt;">
						<path id="&lt;Path&gt;" class="s6" d="m336.4 313.5l-5.8 1.9c-15.6 5.1-32.3-3.4-37.4-19l-12.8-39.5c-5.1-15.6 3.4-32.3 19-37.4l5.8-1.9z"/>
					</g>
					<path id="&lt;Path&gt;" class="s12" d="m465.8 151.9c0 0 65.9-15.8 89-23.6 8.5-2.9 28.5-4.4 20.3-34 0 0-9.3-27.4-43.4-17.5z"/>
					<path id="&lt;Path&gt;" class="s10" d="m328.6 199.6c0 0 59-7.3 113.4-22.9 9-2.6 17.1-7.7 23.9-14.4l67.6-86.1-55.9 15q-4 1.1-7.7 2.9c-20.8 10-114.2 74.6-141.3 105.5z"/>
				</g>
			</g>
			<path id="&lt;Path&gt;" class="s9" d="m706 431.7l84 7.6c15.5 1.4 29.9-8.4 32.7-22.2l0.1-0.6c2.7-13.5-6.8-26.2-21.7-29l-83.3-15.6c-17.5-3.3-34.7 8.3-36.1 24.3l-0.8 8.6c-1.2 13.7 9.8 25.5 25.1 26.9z"/>
			<path id="&lt;Path&gt;" class="s5" d="m325.6 659.2c0 0-19.4-77.4-131.5-46.4-30.6 8.5-82.7 45.6-31.7 123.1z"/>
			<path id="&lt;Path&gt;" class="s6" d="m200.6 645.7c-21.4-0.7-40.5 13.7-45.3 34.5-3.7 16.8-5.6 32.9 7.1 55.7 0 0 5.6 43 115.7 18.4l151.4-30.3 13.7-75.3z"/>
			<path id="&lt;Path&gt;" class="s9" d="m418 640l-20.4 72.4c-3.7 13.3 3.7 27.3 16.9 31.6l0.6 0.1c13 4.2 27-2.3 32-15l28.2-70.7c5.9-14.9-2.9-31.4-18.5-34.9l-8.4-1.8c-13.4-2.9-26.7 5.1-30.4 18.3z"/>
		</g>
	</g>
</svg>